<?xml version="1.0" encoding="utf-8"?>
<!-- Generated by IcoMoon.io -->
<!DOCTYPE svg PUBLIC "-//W3C//DTD SVG 1.1//EN" "http://www.w3.org/Graphics/SVG/1.1/DTD/svg11.dtd">
<svg version="1.1" xmlns="http://www.w3.org/2000/svg" xmlns:xlink="http://www.w3.org/1999/xlink" width="384" height="512" viewBox="0 0 384 512"><g id="icomoon-ignore">
</g>
<path d="M192 480c-106.016 0-192-28.688-192-64 0-19.313 0-40.438 0-64 0-5.563 2.781-10.844 6.781-16 21.407 27.563 95.844 48 185.219 48s163.813-20.438 185.219-48c4 5.156 6.781 10.438 6.781 16 0 18.531 0 38.188 0 64 0 35.313-86 64-192 64zM192 352c-106.016 0-192-28.688-192-64 0-19.328 0-40.422 0-64 0-3.391 1.281-6.688 3-9.953v0c0.969-2.047 2.25-4.063 3.781-6.047 21.407 27.547 95.844 48 185.219 48s163.813-20.453 185.219-48c1.531 1.984 2.813 4 3.781 6.047v0c1.719 3.266 3 6.563 3 9.953 0 18.531 0 38.172 0 64 0 35.313-86 64-192 64zM192 224c-106.016 0-192-28.672-192-64 0-10.109 0-20.797 0-32 0-10.172 0-20.734 0-32 0-35.328 85.984-64 192-64 106 0 192 28.672 192 64 0 9.984 0 20.578 0 32 0 9.797 0 20.125 0 32 0 35.328-86 64-192 64zM192 64c-70.688 0-128 14.297-128 32s57.313 32 128 32 128-14.297 128-32-57.313-32-128-32z"></path>
</svg>
