<?xml version="1.0" encoding="utf-8"?>
<!-- Generated by IcoMoon.io -->
<!DOCTYPE svg PUBLIC "-//W3C//DTD SVG 1.1//EN" "http://www.w3.org/Graphics/SVG/1.1/DTD/svg11.dtd">
<svg version="1.1" xmlns="http://www.w3.org/2000/svg" xmlns:xlink="http://www.w3.org/1999/xlink" width="384" height="512" viewBox="0 0 384 512"><g id="icomoon-ignore">
</g>
<path d="M160 128h-32v32h32v-32zM160 64h-32v32h32v-32zM352 0c-16 0-304 0-320 0s-32 16-32 32 0 368 0 384 16 32 32 32 64 0 64 0v64l48-48 48 48v-64s144 0 160 0 32-16 32-32 0-368 0-384-16-32-32-32zM352 400c0 8-7.5 16-16 16s-144 0-144 0v-32h-96v32s-39.5 0-48 0-16-8.5-16-16 0-48 0-48h320s0 40 0 48zM352 320h-256v-288h256.5l-0.5 288zM160 256h-32v32h32v-32zM160 192h-32v32h32v-32z"></path>
</svg>
